<?xml version="1.0" encoding="UTF-8"?>
<svg width="16px" height="16px" viewBox="0 0 16 16" version="1.1" xmlns="http://www.w3.org/2000/svg" xmlns:xlink="http://www.w3.org/1999/xlink">
    <!-- Generator: Sketch 62 (91390) - https://sketch.com -->
    <title>dribbble</title>
    <desc>Created with Sketch.</desc>
    <g id="Page-1" stroke="none" stroke-width="1" fill="none" fill-rule="evenodd">
        <g id="Project-1" transform="translate(-1101.000000, -4940.000000)" fill="#222222" fill-rule="nonzero">
            <g id="Group-5" transform="translate(0.000000, 3985.000000)">
                <g id="Group-12" transform="translate(0.000000, 635.000000)">
                    <g id="Group-4" transform="translate(1101.000000, 320.000000)">
                        <path d="M0,8 C0,6.549328 0.357344,5.210672 1.072,3.984 C1.786672,2.757328 2.757344,1.786672 3.984,1.072 C5.210672,0.357328 6.549344,0 8,0 C9.450672,0 10.789344,0.357328 12.016,1.072 C13.242672,1.786672 14.213344,2.757328 14.928,3.984 C15.642672,5.210672 16,6.549328 16,8 C16,9.450672 15.642672,10.789328 14.928,12.016 C14.213344,13.242672 13.242672,14.213328 12.016,14.928 C10.789344,15.642672 9.450672,16 8,16 C6.549344,16 5.210672,15.642672 3.984,14.928 C2.757344,14.213328 1.786672,13.242672 1.072,12.016 C0.357344,10.789328 0,9.450672 0,8 Z M1.328,8 C1.328,9.664 1.888,11.130672 3.008,12.4 C3.52,11.397328 4.330672,10.442672 5.44,9.536 C6.549344,8.629328 7.632,8.058672 8.688,7.824 C8.528,7.450672 8.373344,7.114672 8.224,6.816 C6.389344,7.402672 4.405344,7.696 2.272,7.696 C1.856,7.696 1.546672,7.690672 1.344,7.68 C1.344,7.722672 1.341344,7.776 1.336,7.84 C1.330672,7.904 1.328,7.957328 1.328,8 Z M1.536,6.352 C1.770672,6.373328 2.117344,6.384 2.576,6.384 C4.357344,6.384 6.048,6.144 7.648,5.664 C6.837344,4.224 5.946672,3.024 4.976,2.064 C4.133344,2.490672 3.410672,3.082672 2.808,3.84 C2.205344,4.597328 1.781344,5.434672 1.536,6.352 Z M3.92,13.264 C5.125344,14.202672 6.485344,14.672 8,14.672 C8.789344,14.672 9.573344,14.522672 10.352,14.224 C10.138672,12.4 9.722672,10.634672 9.104,8.928 C8.122672,9.141328 7.133344,9.68 6.136,10.544 C5.138672,11.408 4.4,12.314672 3.92,13.264 Z M6.368,1.552 C7.306672,2.522672 8.176,3.733328 8.976,5.184 C10.426672,4.576 11.52,3.802672 12.256,2.864 C11.018672,1.84 9.6,1.328 8,1.328 C7.456,1.328 6.912,1.402672 6.368,1.552 Z M9.552,6.32 C9.712,6.661328 9.893344,7.093328 10.096,7.616 C10.885344,7.541328 11.744,7.504 12.672,7.504 C13.333344,7.504 13.989344,7.52 14.64,7.552 C14.554672,6.101328 14.032,4.810672 13.072,3.68 C12.378672,4.714672 11.205344,5.594672 9.552,6.32 Z M10.496,8.736 C11.04,10.314672 11.408,11.936 11.6,13.6 C12.442672,13.056 13.130672,12.357328 13.664,11.504 C14.197344,10.650672 14.517344,9.728 14.624,8.736 C13.845344,8.682672 13.136,8.656 12.496,8.656 C11.909344,8.656 11.242672,8.682672 10.496,8.736 Z" id="dribbble"></path>
                    </g>
                </g>
            </g>
        </g>
    </g>
</svg>