<?xml version="1.0" encoding="UTF-8"?>
<svg width="17px" height="16px" viewBox="0 0 17 16" version="1.1" xmlns="http://www.w3.org/2000/svg" xmlns:xlink="http://www.w3.org/1999/xlink">
    <!-- Generator: Sketch 62 (91390) - https://sketch.com -->
    <title>insta</title>
    <desc>Created with Sketch.</desc>
    <g id="Page-1" stroke="none" stroke-width="1" fill="none" fill-rule="evenodd">
        <g id="Project-1" transform="translate(-1174.000000, -4940.000000)" fill="#222222" fill-rule="nonzero">
            <g id="Group-5" transform="translate(0.000000, 3985.000000)">
                <g id="Group-12" transform="translate(0.000000, 635.000000)">
                    <g id="Group-4" transform="translate(1101.000000, 320.000000)">
                        <path d="M78.9339796,8 C78.9339796,6.5273021 80.1275657,5.33311793 81.6003231,5.33311793 C83.0730805,5.33311793 84.2673129,6.5273021 84.2673129,8 C84.2673129,9.4726979 83.0730805,10.6668821 81.6003231,10.6668821 C80.1275657,10.6668821 78.9339796,9.4726979 78.9339796,8 M77.4922412,8 C77.4922412,10.2688207 79.3314108,12.107916 81.6003231,12.107916 C83.8692354,12.107916 85.708405,10.2688207 85.708405,8 C85.708405,5.73117932 83.8692354,3.89208401 81.6003231,3.89208401 C79.3314108,3.89208401 77.4922412,5.73117932 77.4922412,8 M84.9109576,3.72924071 C84.9109576,4.25912763 85.3407004,4.68949919 85.8712549,4.68949919 C86.4011632,4.68949919 86.8315522,4.25912763 86.8315522,3.72924071 C86.8315522,3.1993538 86.4018094,2.76962843 85.8712549,2.76962843 C85.3407004,2.76962843 84.9109576,3.1993538 84.9109576,3.72924071 M78.3678824,14.5117932 C77.5878832,14.476252 77.1639565,14.3463651 76.8822004,14.2365105 C76.5086797,14.0911147 76.2424331,13.9179321 75.9619694,13.638126 C75.6821519,13.3583199 75.5083162,13.092084 75.3635607,12.7185784 C75.2537017,12.4368336 75.1238095,12.0129241 75.0882669,11.2329564 C75.0494931,10.3896607 75.0417384,10.1363489 75.0417384,8 C75.0417384,5.86365105 75.0501393,5.61098546 75.0882669,4.76704362 C75.1238095,3.98707593 75.2543479,3.5638126 75.3635607,3.28142165 C75.5089624,2.90791599 75.6821519,2.64168013 75.9619694,2.36122779 C76.2417868,2.08142165 76.5080334,1.90759289 76.8822004,1.7628433 C77.1639565,1.65298869 77.5878832,1.52310178 78.3678824,1.48756058 C79.2112121,1.44878837 79.4645341,1.44103393 81.6003231,1.44103393 C83.7367584,1.44103393 83.9894341,1.44943457 84.8334101,1.48756058 C85.6134093,1.52310178 86.0366897,1.65363489 86.319092,1.7628433 C86.6926128,1.90759289 86.9588594,2.08142165 87.2393231,2.36122779 C87.5191405,2.64103393 87.6923301,2.90791599 87.8377317,3.28142165 C87.9475908,3.5631664 88.0774829,3.98707593 88.1130256,4.76704362 C88.1517993,5.61098546 88.1595541,5.86365105 88.1595541,8 C88.1595541,10.1357027 88.1517993,10.3890145 88.1130256,11.2329564 C88.0774829,12.0129241 87.9469445,12.4368336 87.8377317,12.7185784 C87.6923301,13.092084 87.5191405,13.3583199 87.2393231,13.638126 C86.9595056,13.9179321 86.6926128,14.0911147 86.319092,14.2365105 C86.0373359,14.3463651 85.6134093,14.476252 84.8334101,14.5117932 C83.9900804,14.5505654 83.7367584,14.5583199 81.6003231,14.5583199 C79.4645341,14.5583199 79.2112121,14.5505654 78.3678824,14.5117932 M78.301967,0.0484652666 C77.4502363,0.0872374798 76.8686296,0.222294023 76.3600469,0.42003231 C75.8340159,0.624232633 75.3881175,0.89822294 74.9428652,1.34281099 C74.4982592,1.78739903 74.2242578,2.23327948 74.0200493,2.75993538 C73.822303,3.26849758 73.687241,3.85008078 73.6484672,4.70177706 C73.6090472,5.55476575 73.6,5.82746365 73.6,8 C73.6,10.1725363 73.6090472,10.4452342 73.6484672,11.2982229 C73.687241,12.1499192 73.822303,12.7315024 74.0200493,13.2400646 C74.2242578,13.7660743 74.497613,14.212601 74.9428652,14.657189 C75.3874712,15.1017771 75.8333697,15.3751212 76.3600469,15.5799677 C76.8692758,15.777706 77.4502363,15.9127625 78.301967,15.9515347 C79.1556363,15.9903069 79.427699,16 81.6003231,16 C83.7735934,16 84.0456561,15.9909532 84.8986793,15.9515347 C85.75041,15.9127625 86.3320166,15.777706 86.8405994,15.5799677 C87.3666303,15.3751212 87.8125288,15.1017771 88.257781,14.657189 C88.702387,14.212601 88.9757422,13.7660743 89.180597,13.2400646 C89.3783432,12.7315024 89.5140515,12.1499192 89.552179,11.2982229 C89.5909528,10.444588 89.6,10.1725363 89.6,8 C89.6,5.82746365 89.5909528,5.55476575 89.552179,4.70177706 C89.5134052,3.85008078 89.3783432,3.26849758 89.180597,2.75993538 C88.9757422,2.23392569 88.702387,1.78804523 88.257781,1.34281099 C87.813175,0.89822294 87.3666303,0.624232633 86.8412456,0.42003231 C86.3320166,0.222294023 85.75041,0.0865912763 84.8993255,0.0484652666 C84.0463024,0.00969305331 83.7735934,0 81.6009693,0 C79.427699,0 79.1556363,0.00904684976 78.301967,0.0484652666" id="insta"></path>
                    </g>
                </g>
            </g>
        </g>
    </g>
</svg>