<?xml version="1.0" encoding="UTF-8"?>
<svg width="17px" height="16px" viewBox="0 0 17 16" version="1.1" xmlns="http://www.w3.org/2000/svg" xmlns:xlink="http://www.w3.org/1999/xlink">
    <!-- Generator: Sketch 62 (91390) - https://sketch.com -->
    <title>linkedin</title>
    <desc>Created with Sketch.</desc>
    <g id="Page-1" stroke="none" stroke-width="1" fill="none" fill-rule="evenodd">
        <g id="Project-1" transform="translate(-1137.000000, -4940.000000)" fill="#222222" fill-rule="nonzero">
            <g id="Group-5" transform="translate(0.000000, 3985.000000)">
                <g id="Group-12" transform="translate(0.000000, 635.000000)">
                    <g id="Group-4" transform="translate(1101.000000, 320.000000)">
                        <path d="M51.6175,0 C52.270625,0 52.8,0.5135 52.8,1.146125 L52.8,14.8540625 C52.8,15.486875 52.270625,16 51.6175,16 L37.9825,16 C37.3296875,16 36.8,15.4869375 36.8,14.85425 L36.8,1.146125 C36.8,0.5135 37.329625,0 37.9825,0 L51.6175,0 Z M41.66225,6.186625 L39.268,6.186625 L39.268,13.389875 L41.6625,13.389875 L41.66225,6.186625 Z M47.5395625,6.01775 C46.3240919,6.01775 45.7501715,6.657141 45.4241355,7.14223443 L45.381,7.207 L45.38175,6.186875 L42.987625,6.186875 C43.0164712,6.81064423 42.9919031,12.42052 42.9879527,13.2798868 L42.9874375,13.389875 L45.3815625,13.389875 L45.3815625,9.3676875 C45.3815625,9.1526875 45.3971875,8.937125 45.4604375,8.7835625 C45.6334375,8.35325 46.027375,7.9078125 46.6889375,7.9078125 C47.5550625,7.9078125 47.90175,8.5683125 47.90175,9.53675 L47.90175,13.389875 L50.29575,13.389875 L50.29575,9.25975 C50.29575,7.0473125 49.11475,6.01775 47.5395625,6.01775 Z M40.4815,2.71425 C39.6620625,2.71425 39.126875,3.2519375 39.126875,3.958875 C39.126875,4.650125 39.646375,5.20325 40.4499375,5.20325 L40.4654375,5.20325 C41.300375,5.2033125 41.8200625,4.6501875 41.8200625,3.9589375 C41.8044375,3.2519375 41.300375,2.71425 40.4815,2.71425 Z" id="linkedin"></path>
                    </g>
                </g>
            </g>
        </g>
    </g>
</svg>