<?xml version="1.0" encoding="UTF-8"?>
<svg width="33px" height="33px" viewBox="0 0 33 33" version="1.1" xmlns="http://www.w3.org/2000/svg" xmlns:xlink="http://www.w3.org/1999/xlink">
    <!-- Generator: Sketch 62 (91390) - https://sketch.com -->
    <title>gm</title>
    <desc>Created with Sketch.</desc>
    <defs>
        <linearGradient x1="50%" y1="0%" x2="50%" y2="100%" id="linearGradient-1">
            <stop stop-color="#474747" offset="0%"></stop>
            <stop stop-color="#222222" offset="100%"></stop>
        </linearGradient>
        <path d="M26.820151,9.9475983e-14 C30.2332208,9.9475983e-14 33,2.68914759 33,6.00639034 L33,19.1188859 C33,20.2259599 32.4948544,21.2725325 31.6280873,21.961247 L18.726966,32.2122008 C17.4191402,33.2513711 15.5710134,33.2640108 14.2490964,32.242826 L1.41100121,22.3253587 C0.521099996,21.6379073 -7.54259272e-13,20.5768784 -7.56728014e-13,19.4523725 L-7.56728014e-13,6.00639034 C-7.56728014e-13,2.68914759 2.76683578,9.9475983e-14 6.17990552,9.9475983e-14 L26.820151,9.9475983e-14 Z M24.4822531,3.96539384 L16.9016404,3.96539384 C15.8991354,3.96539384 15.0864445,4.77808471 15.0864445,5.78058971 L15.0864445,5.78058971 L15.0864445,26.2329158 C15.0864445,27.0136166 15.7193275,27.6464996 16.5000283,27.6464996 C17.280729,27.6464996 17.913612,27.0136166 17.913612,26.2329158 L17.913612,26.2329158 L17.913612,6.75792077 L20.6842362,6.75792077 L20.6842362,21.8566544 C20.6842362,22.6373552 21.3171192,23.2702382 22.09782,23.2702382 C22.8785208,23.2702382 23.5114038,22.6373552 23.5114038,21.8566544 L23.5114038,21.8566544 L23.5114038,6.75792077 L24.4822531,6.75792077 C25.4745889,6.75792077 26.282028,7.55546646 26.282028,8.53564342 L26.282028,8.53564342 L26.282028,17.5719618 C26.282028,18.3526626 26.914911,18.9855456 27.6956117,18.9855456 C28.4763125,18.9855456 29.1091955,18.3526626 29.1091955,17.5719618 L29.1091955,17.5719618 L29.1091955,8.53564342 C29.1091955,6.01566711 27.0334891,3.96539384 24.4822531,3.96539384 L24.4822531,3.96539384 Z M10.9195568,3.96539384 L8.51780345,3.96539384 C5.96656746,3.96539384 3.89086105,6.01566711 3.89086105,8.53564342 L3.89086105,8.53564342 L3.89086105,18.2391165 L6.71802859,20.4312501 L6.71802859,20.421197 L9.48865278,22.5697672 L9.48865278,22.5798203 L10.8520826,23.6369987 C11.0112137,23.760386 11.2068593,23.8273501 11.4082224,23.8273501 C11.9094749,23.8273501 12.3158203,23.4210047 12.3158203,22.9197522 L12.3158203,22.9197522 L12.3158203,15.0355112 C12.3158203,14.2548104 11.6829373,13.6219274 10.9022365,13.6219274 C10.1215358,13.6219274 9.48865278,14.2548104 9.48865278,15.0355112 L9.48865278,15.0355112 L9.48865278,18.9484183 L6.71802859,16.7998481 L6.71802859,8.53564342 C6.71802859,7.55546646 7.52546764,6.75792077 8.51780345,6.75792077 L8.51780345,6.75792077 L10.9195568,6.75792077 C11.6906919,6.75792077 12.3158203,6.13279232 12.3158203,5.3616573 C12.3158203,4.59052228 11.6906919,3.96539384 10.9195568,3.96539384 L10.9195568,3.96539384 Z" id="path-2"></path>
    </defs>
    <g id="gm" stroke="none" stroke-width="1" fill="none" fill-rule="evenodd">
        <mask id="mask-3" fill="white">
            <use xlink:href="#path-2"></use>
        </mask>
        <use id="Mask" fill="url(#linearGradient-1)" xlink:href="#path-2"></use>
    </g>
</svg>